<svg width="782" height="782" viewBox="0 0 782 782" fill="none" xmlns="http://www.w3.org/2000/svg">
<rect width="782" height="782" rx="200" fill="#FD0000"/>
<path d="M551.455 433.002C540.375 443.819 534.043 459.384 535.626 476.004C538.001 504.496 564.118 525.337 592.61 525.337H642.735V556.731C642.735 611.341 598.15 655.925 543.541 655.925H276.825C285.003 649.066 292.126 640.624 297.666 631.127C307.427 615.298 312.967 596.567 312.967 576.781C312.965 556.901 307.346 537.427 296.758 520.601C286.17 503.776 271.043 490.285 253.121 481.682C235.199 473.079 215.211 469.716 195.46 471.978C175.71 474.241 157 482.038 141.488 494.471V379.184C141.488 324.575 186.073 279.99 240.682 279.99H543.541C598.15 279.99 642.735 324.575 642.735 379.184V417.173H589.444C574.671 417.173 561.216 422.977 551.455 433.002Z" fill="white"/>
<path d="M312.967 576.781C312.967 596.567 307.427 615.298 297.666 631.127C292.126 640.624 285.003 649.066 276.825 655.925C258.358 672.546 234.087 682.307 207.442 682.307C189.253 682.345 171.369 677.645 155.549 668.671C139.728 659.697 126.518 646.758 117.217 631.127C107.175 614.782 101.877 595.965 101.916 576.781C101.916 543.541 117.217 513.73 141.488 494.471C157 482.038 175.71 474.241 195.46 471.979C215.211 469.716 235.199 473.08 253.121 481.682C271.043 490.285 286.17 503.776 296.758 520.602C307.346 537.427 312.965 556.901 312.967 576.781V576.781Z" fill="white" stroke="#FD0000" stroke-width="33.55" stroke-miterlimit="10" stroke-linecap="round" stroke-linejoin="round"/>
<path d="M166.313 576.781L192.431 602.899L248.623 550.927" stroke="#FD0000" stroke-width="19.55" stroke-linecap="round" stroke-linejoin="round"/>
<path d="M141.489 381.488V282.365C141.489 250.971 160.747 223.007 190.031 211.927L399.499 132.782C407.088 129.922 415.259 128.947 423.308 129.939C431.358 130.932 439.047 133.863 445.714 138.481C452.382 143.099 457.829 149.266 461.589 156.452C465.348 163.639 467.308 171.631 467.299 179.741V279.991M260.205 392.111H444.875Z" fill="white"/>
<line x1="467.814" y1="263.046" x2="140.915" y2="263.046" stroke="#FD0000" stroke-width="33.55"/>
<path d="M670.674 498.43V444.084C670.674 429.574 659.066 417.702 644.292 417.175H589.419C574.646 417.175 561.191 422.979 551.43 433.004C540.35 443.82 534.018 459.385 535.601 476.005C537.975 504.497 564.093 525.339 592.585 525.339H644.292C659.066 524.811 670.674 512.939 670.674 498.43Z" fill="white" stroke="#F90000" stroke-width="33.55" stroke-linecap="round" stroke-linejoin="round"/>
</svg>
