<svg width="221" height="228" viewBox="0 0 221 228" fill="none" xmlns="http://www.w3.org/2000/svg">
<path d="M179.453 136.227C174.873 140.405 172.256 146.417 172.91 152.837C173.891 163.843 184.688 171.893 196.466 171.893H217.186V184.02C217.186 205.114 198.756 222.335 176.181 222.335H65.9276C69.3083 219.686 72.2528 216.425 74.5429 212.756C78.5779 206.642 80.8681 199.407 80.8681 191.764C80.8672 184.085 78.5445 176.563 74.1675 170.064C69.7906 163.565 63.5375 158.353 56.129 155.03C48.7205 151.707 40.4579 150.408 32.2935 151.282C24.1291 152.156 16.3951 155.168 9.98279 159.97V93.9181C9.98279 72.824 5.45118 77.1223 50.9872 77.1225H176.181C198.756 77.1225 217.186 94.3442 217.186 115.438V130.112H195.157C189.05 130.112 183.488 132.354 179.453 136.227Z" fill="#0D6DFB"/>
<path d="M70.9595 194.563C70.9595 200.781 69.0968 206.666 65.8149 211.64C63.9522 214.625 61.5574 217.277 58.8077 219.433C52.5987 224.655 44.4384 227.723 35.4798 227.723C29.3645 227.734 23.3514 226.258 18.0323 223.438C12.7132 220.618 8.27157 216.552 5.14463 211.64C1.76821 206.504 -0.0130313 200.591 7.17727e-05 194.563C7.17727e-05 184.118 5.14463 174.751 13.305 168.699C18.5204 164.792 24.8109 162.342 31.4514 161.631C38.0919 160.92 44.8122 161.977 50.838 164.68C56.8637 167.384 61.9496 171.623 65.5096 176.91C69.0696 182.197 70.9588 188.317 70.9595 194.563Z" fill="#0D6DFB"/>
<path d="M18.397 193.505L29.1933 203.593L52.4219 183.518" stroke="white" stroke-width="10" stroke-linecap="round" stroke-linejoin="round"/>
<path d="M220.023 158.196V144.623C220.023 141 216.641 138.035 212.337 137.903H196.35C192.046 137.903 188.126 139.352 185.282 141.856C182.054 144.557 180.21 148.445 180.671 152.596C181.362 159.712 188.971 164.917 197.272 164.917H212.337C216.641 164.785 220.023 161.82 220.023 158.196Z" fill="#0D6DFB"/>
<path d="M9.39404 59.0232C9.39404 46.8967 17.355 36.0949 29.46 31.8149L116.049 1.24376C119.186 0.139002 122.564 -0.237861 125.891 0.145527C129.219 0.528915 132.397 1.6611 135.153 3.4449C137.91 5.2287 140.161 7.61083 141.716 10.3868C143.27 13.1628 144.08 16.2497 144.076 19.3826V58.1061M45.5975 101.415H134.806Z" fill="#0D6DFB"/>
</svg>
